<svg width="35" height="36" viewBox="0 0 35 36" fill="none" xmlns="http://www.w3.org/2000/svg">
<rect x="0.5" y="1.42004" width="34" height="34" rx="4.5" fill="white"/>
<rect x="0.5" y="1.42004" width="34" height="34" rx="4.5" stroke="#E1DFDF"/>
<g clip-path="url(#clip0_8342_24752)">
<path d="M21.4858 18.1226C21.4575 17.5465 21.3489 16.9987 21.16 16.4793C20.9711 15.9598 20.7114 15.4781 20.3808 15.0343C20.1919 15.2326 19.9747 15.4404 19.7292 15.6576C19.0492 16.2243 18.2653 16.6965 17.3775 17.0743C17.5003 17.3293 17.6089 17.5654 17.7033 17.7826L17.7742 17.9809C18.7847 17.8676 19.885 17.8912 21.075 18.0518L21.4858 18.1226ZM14.8417 12.8384C14.9739 13.0179 15.1108 13.2162 15.2525 13.4334C15.7153 14.104 16.1356 14.7745 16.5133 15.4451L16.7542 15.8701C17.5853 15.5395 18.3031 15.1193 18.9075 14.6093C19.1247 14.4298 19.3136 14.2504 19.4742 14.0709C18.9736 13.6554 18.4164 13.3343 17.8025 13.1076C17.1697 12.8715 16.5133 12.7534 15.8333 12.7534C15.5028 12.7534 15.1722 12.7818 14.8417 12.8384ZM10.3508 17.0034C10.7947 16.994 11.2764 16.9656 11.7958 16.9184C12.9953 16.8051 14.1428 16.6115 15.2383 16.3376C14.8417 15.6387 14.4025 14.9304 13.9208 14.2126C13.7131 13.9009 13.5147 13.6081 13.3258 13.3343C12.5892 13.7026 11.9588 14.2055 11.4346 14.843C10.9104 15.4805 10.5492 16.2006 10.3508 17.0034ZM11.4275 21.9901C11.7392 21.5368 12.1122 21.0881 12.5467 20.6443C13.6422 19.5204 14.8606 18.7412 16.2017 18.3068L16.2442 18.2926C16.1214 18.0376 16.0081 17.8062 15.9042 17.5984C14.6575 17.9573 13.3117 18.2029 11.8667 18.3351C11.2528 18.3918 10.6861 18.4201 10.1667 18.4201C10.1667 19.0906 10.28 19.7329 10.5067 20.3468C10.7239 20.9418 11.0308 21.4895 11.4275 21.9901ZM17.9583 23.6759C17.8828 23.2604 17.7836 22.8259 17.6608 22.3726C17.4247 21.4281 17.1414 20.512 16.8108 19.6243C15.4508 20.1154 14.3081 20.8379 13.3825 21.7918C12.9953 22.1884 12.6836 22.5804 12.4475 22.9676C12.9292 23.3265 13.4581 23.6027 14.0342 23.7963C14.6103 23.9899 15.21 24.0868 15.8333 24.0868C16.57 24.0868 17.2783 23.9498 17.9583 23.6759ZM19.29 22.9109C19.8378 22.4859 20.2958 21.9783 20.6642 21.388C21.0325 20.7977 21.2781 20.1579 21.4008 19.4684C21.1269 19.3929 20.8342 19.3362 20.5225 19.2984C19.7386 19.1851 18.9878 19.1756 18.27 19.2701C18.5817 20.139 18.8461 21.022 19.0633 21.9193C19.1483 22.2687 19.2239 22.5993 19.29 22.9109ZM15.8333 25.5034C14.87 25.5034 13.9492 25.3193 13.0708 24.9509C12.2303 24.592 11.4818 24.0844 10.8254 23.428C10.169 22.7716 9.66139 22.0231 9.3025 21.1826C8.93417 20.3043 8.75 19.3834 8.75 18.4201C8.75 17.4568 8.93417 16.5359 9.3025 15.6576C9.66139 14.817 10.169 14.0686 10.8254 13.4122C11.4818 12.7558 12.2303 12.2481 13.0708 11.8893C13.9492 11.5209 14.87 11.3368 15.8333 11.3368C16.7967 11.3368 17.7175 11.5209 18.5958 11.8893C19.4364 12.2481 20.1849 12.7558 20.8413 13.4122C21.4976 14.0686 22.0053 14.817 22.3642 15.6576C22.7325 16.5359 22.9167 17.4568 22.9167 18.4201C22.9167 19.3834 22.7325 20.3043 22.3642 21.1826C22.0053 22.0231 21.4976 22.7716 20.8413 23.428C20.1849 24.0844 19.4364 24.592 18.5958 24.9509C17.7175 25.3193 16.7967 25.5034 15.8333 25.5034Z" fill="black"/>
</g>
<defs>
<clipPath id="clip0_8342_24752">
<rect width="17.48" height="17" fill="white" transform="matrix(1 0 0 -1 8.75 26.92)"/>
</clipPath>
</defs>
</svg>
