<svg width="35" height="36" viewBox="0 0 35 36" fill="none" xmlns="http://www.w3.org/2000/svg">
<rect x="0.5" y="1.42004" width="34" height="34" rx="4.5" fill="white"/>
<rect x="0.5" y="1.42004" width="34" height="34" rx="4.5" stroke="#E1DFDF"/>
<g clip-path="url(#clip0_8342_24746)">
<path d="M13 17.0034H16.1875L15.8333 18.42H13V24.795H11.5833V18.42H8.75V17.0034H11.5833V15.6717C11.5833 15.0767 11.6117 14.6139 11.6683 14.2834C11.725 14.0095 11.8194 13.745 11.9517 13.49C12.2067 13.0273 12.5656 12.6731 13.0283 12.4275C13.2739 12.2859 13.5383 12.1914 13.8217 12.1442C14.1522 12.0781 14.615 12.045 15.21 12.045C15.5783 12.045 15.8994 12.0781 16.1733 12.1442V13.4617H15.21C14.7567 13.4617 14.4285 13.4759 14.2254 13.5042C14.0224 13.5325 13.8453 13.5892 13.6942 13.6742C13.4769 13.7875 13.3117 13.9481 13.1983 14.1559C13.1228 14.307 13.0708 14.4841 13.0425 14.6871C13.0142 14.8902 12.9953 15.2184 12.9858 15.6717V17.0034H13Z" fill="black"/>
</g>
<defs>
<clipPath id="clip0_8342_24746">
<rect width="17.48" height="17" fill="white" transform="matrix(1 0 0 -1 8.75 26.92)"/>
</clipPath>
</defs>
</svg>
