<svg width="35" height="36" viewBox="0 0 35 36" fill="none" xmlns="http://www.w3.org/2000/svg">
<rect x="0.5" y="1.42004" width="34" height="34" rx="4.5" fill="white"/>
<rect x="0.5" y="1.42004" width="34" height="34" rx="4.5" stroke="#E1DFDF"/>
<g clip-path="url(#clip0_8342_24755)">
<path d="M15.8333 16.2951C15.4461 16.2951 15.0896 16.3895 14.7638 16.5784C14.4379 16.7673 14.1806 17.0247 13.9917 17.3505C13.8028 17.6763 13.7083 18.0329 13.7083 18.4201C13.7083 18.8073 13.8028 19.1638 13.9917 19.4897C14.1806 19.8155 14.4379 20.0729 14.7638 20.2618C15.0896 20.4506 15.4461 20.5451 15.8333 20.5451C16.2206 20.5451 16.5771 20.4506 16.9029 20.2618C17.2288 20.0729 17.4861 19.8155 17.675 19.4897C17.8639 19.1638 17.9583 18.8073 17.9583 18.4201C17.9583 18.0329 17.8639 17.6763 17.675 17.3505C17.4861 17.0247 17.2288 16.7673 16.9029 16.5784C16.5771 16.3895 16.2206 16.2951 15.8333 16.2951ZM15.8333 14.8784C16.4756 14.8784 17.0682 15.0366 17.6112 15.353C18.1543 15.6694 18.584 16.0991 18.9004 16.6422C19.2168 17.1852 19.375 17.7779 19.375 18.4201C19.375 19.0623 19.2168 19.6549 18.9004 20.198C18.584 20.7411 18.1543 21.1708 17.6112 21.4872C17.0682 21.8036 16.4756 21.9618 15.8333 21.9618C15.1911 21.9618 14.5985 21.8036 14.0554 21.4872C13.5124 21.1708 13.0826 20.7411 12.7663 20.198C12.4499 19.6549 12.2917 19.0623 12.2917 18.4201C12.2917 17.7779 12.4499 17.1852 12.7663 16.6422C13.0826 16.0991 13.5124 15.6694 14.0554 15.353C14.5985 15.0366 15.1911 14.8784 15.8333 14.8784ZM20.4375 14.6943C20.4375 14.9398 20.3501 15.1499 20.1754 15.3247C20.0007 15.4994 19.7929 15.5868 19.5521 15.5868C19.3113 15.5868 19.1035 15.4994 18.9288 15.3247C18.754 15.1499 18.6667 14.9422 18.6667 14.7013C18.6667 14.4605 18.754 14.2527 18.9288 14.078C19.1035 13.9033 19.3113 13.8159 19.5521 13.8159C19.7929 13.8159 20.0007 13.9033 20.1754 14.078C20.3501 14.2527 20.4375 14.4581 20.4375 14.6943ZM15.8333 12.7534C14.9644 12.7534 14.3742 12.7558 14.0625 12.7605C13.7508 12.7652 13.3919 12.777 12.9858 12.7959C12.4758 12.8148 12.0508 12.8904 11.7108 13.0226C11.4181 13.1359 11.1607 13.3036 10.9388 13.5255C10.7168 13.7474 10.5492 14.0048 10.4358 14.2976C10.3036 14.6376 10.2281 15.0626 10.2092 15.5726C10.1903 15.9598 10.1785 16.3069 10.1738 16.6138C10.169 16.9208 10.1667 17.5229 10.1667 18.4201C10.1667 19.289 10.169 19.8793 10.1738 20.1909C10.1785 20.5026 10.1903 20.8615 10.2092 21.2676C10.2281 21.7776 10.3036 22.2026 10.4358 22.5426C10.5492 22.8354 10.7168 23.0927 10.9388 23.3147C11.1607 23.5366 11.4181 23.6995 11.7108 23.8034C12.0508 23.9451 12.4758 24.0254 12.9858 24.0443C13.3731 24.0631 13.7201 24.0749 14.0271 24.0797C14.334 24.0844 14.9361 24.0868 15.8333 24.0868C16.7022 24.0868 17.2925 24.0844 17.6042 24.0797C17.9158 24.0749 18.2747 24.0631 18.6808 24.0443C19.1908 24.0254 19.6158 23.9498 19.9558 23.8176C20.2486 23.7043 20.506 23.5366 20.7279 23.3147C20.9499 23.0927 21.1128 22.8354 21.2167 22.5426C21.3583 22.2026 21.4386 21.7776 21.4575 21.2676C21.4764 20.8804 21.4882 20.5333 21.4929 20.2263C21.4976 19.9194 21.5 19.3173 21.5 18.4201C21.5 17.5512 21.4976 16.9609 21.4929 16.6493C21.4882 16.3376 21.4764 15.9787 21.4575 15.5726C21.4386 15.0626 21.3631 14.6376 21.2308 14.2976C21.1175 14.0048 20.9499 13.7474 20.7279 13.5255C20.506 13.3036 20.2486 13.1359 19.9558 13.0226C19.6158 12.8904 19.1908 12.8148 18.6808 12.7959C18.2936 12.777 17.9465 12.7652 17.6396 12.7605C17.3326 12.7558 16.7306 12.7534 15.8333 12.7534ZM15.8333 11.3368C16.7589 11.3368 17.3917 11.3415 17.7317 11.3509C18.015 11.3509 18.355 11.3604 18.7517 11.3793C19.4128 11.4076 19.9842 11.5162 20.4658 11.7051C20.9475 11.894 21.3678 12.1679 21.7267 12.5268C22.0856 12.8856 22.3594 13.3059 22.5483 13.7876C22.7372 14.2693 22.8458 14.8406 22.8742 15.5018C22.8931 15.9079 22.9025 16.2479 22.9025 16.5218C22.9119 16.8806 22.9167 17.5181 22.9167 18.4343C22.9167 19.3504 22.9119 19.9784 22.9025 20.3184C22.9025 20.6018 22.8931 20.9418 22.8742 21.3384C22.8458 21.9995 22.7372 22.5709 22.5483 23.0526C22.3594 23.5343 22.0856 23.9545 21.7267 24.3134C21.3678 24.6723 20.9475 24.9462 20.4658 25.1351C19.9842 25.324 19.4128 25.4326 18.7517 25.4609C18.3456 25.4798 18.0056 25.4893 17.7317 25.4893C17.3728 25.4987 16.7353 25.5034 15.8192 25.5034C14.9031 25.5034 14.275 25.4987 13.935 25.4893C13.6517 25.4893 13.3117 25.4798 12.915 25.4609C12.2539 25.4326 11.6825 25.324 11.2008 25.1351C10.7192 24.9462 10.2989 24.6723 9.94 24.3134C9.58111 23.9545 9.30722 23.5343 9.11833 23.0526C8.92944 22.5709 8.82083 21.9995 8.7925 21.3384C8.77361 20.9323 8.76417 20.5923 8.76417 20.3184C8.75472 19.9595 8.75 19.322 8.75 18.4059C8.75 17.4898 8.75472 16.8618 8.76417 16.5218C8.76417 16.2384 8.77361 15.8984 8.7925 15.5018C8.82083 14.8406 8.92944 14.2693 9.11833 13.7876C9.30722 13.3059 9.58111 12.8856 9.94 12.5268C10.2989 12.1679 10.7192 11.894 11.2008 11.7051C11.6825 11.5162 12.2539 11.4076 12.915 11.3793C13.3211 11.3604 13.6611 11.3509 13.935 11.3509C14.2939 11.3415 14.9267 11.3368 15.8333 11.3368Z" fill="black"/>
</g>
<defs>
<clipPath id="clip0_8342_24755">
<rect width="17.48" height="17" fill="white" transform="matrix(1 0 0 -1 8.75 26.92)"/>
</clipPath>
</defs>
</svg>
